<svg width="50" height="50" viewBox="0 0 50 50" fill="none" xmlns="http://www.w3.org/2000/svg">
<path d="M21.923 46.3516C21.5733 45.9078 21.1009 45.6388 20.6898 45.284C18.5309 43.421 16.7269 41.1775 15.1123 38.7423C14.2731 37.4765 13.671 36.0347 13.3216 34.512C13.1571 33.7948 13.074 33.0206 12.946 32.2865C12.7446 31.1314 12.913 29.9485 12.6198 28.8157C12.5632 28.5969 12.5358 28.3614 12.5339 28.1332C12.5225 26.7682 12.2399 25.4458 12.0729 24.1041C11.7431 21.4543 10.7808 19.0959 9.63088 16.8044C9.4053 16.3549 9.47365 16.1806 9.87524 15.9295C10.883 15.2996 11.915 14.7336 12.9943 14.2731C14.2407 13.7413 15.5086 13.3203 16.8177 13.0065C17.4584 12.853 18.1128 12.7512 18.7538 12.5959C19.4993 12.4151 20.2849 12.3694 21.054 12.3116C23.4209 12.1338 25.7935 12.1913 28.1623 12.2392C29.8433 12.2733 31.4949 12.6386 33.1488 12.9984C34.7821 13.3537 36.3402 13.9217 37.8597 14.641C38.6852 15.0317 39.4741 15.5201 40.2765 15.9712C40.6305 16.1703 40.5754 16.4929 40.4059 16.7797C39.4582 18.3834 38.8431 20.1561 38.3293 21.9722C38.1651 22.5525 38.0919 23.1756 37.9778 23.7767C37.7745 24.8474 37.677 25.9304 37.5558 27.0097C37.3518 28.8272 37.2586 30.6624 37.0065 32.4705C36.6269 35.1926 35.7789 37.6969 34.1046 39.8072C33.2348 40.9035 32.4014 42.037 31.463 43.061C30.3874 44.2347 29.2417 45.3246 27.9783 46.2352C27.1187 46.8547 26.1888 47.3439 25.188 47.6246C24.6257 47.7824 24.148 47.4177 23.6388 47.2578C23.0405 47.0699 22.5646 46.5932 21.9524 46.3533C21.9198 46.3484 21.923 46.3516 21.923 46.3516ZM38.145 17.3234C38.2583 17.0731 38.1014 16.9674 37.9455 16.8693C36.5861 16.0135 35.1666 15.3089 33.6697 14.8187C32.6788 14.4942 31.6738 14.2333 30.6626 13.9858C29.1076 13.6052 27.5384 13.4206 25.9718 13.4731C24.2591 13.5305 22.5366 13.3783 20.826 13.7242C20.1495 13.861 19.4491 13.9579 18.7837 14.1212C17.7075 14.3854 16.6249 14.6769 15.5881 15.133C14.3724 15.6677 13.1663 16.2193 12.0324 16.9534C11.8401 17.0779 11.7421 17.1933 11.8592 17.4554C12.2737 18.383 12.5634 19.3668 12.861 20.3458C13.0571 20.9906 13.32 21.6297 13.3984 22.2942C13.4787 22.9756 13.6645 23.6254 13.7646 24.2992C13.9223 25.3611 14.0044 26.4314 14.136 27.4949C14.257 28.4731 14.0342 29.4851 14.2594 30.4557C14.4425 31.2449 14.4586 32.0577 14.6166 32.8524C14.7702 33.6251 14.9273 34.4095 15.197 35.1189C15.8407 36.8122 16.729 38.3442 17.8339 39.7337C19.6567 42.0261 21.6874 43.9972 24.154 45.3756C24.6464 45.6508 25.1227 45.6812 25.6063 45.4283C27.1766 44.6071 28.5625 43.4876 29.8528 42.1936C31.6169 40.4245 33.2314 38.528 34.3086 36.1321C34.6817 35.3023 35.004 34.4536 35.1977 33.5382C35.2884 33.1097 35.3238 32.6704 35.4271 32.2533C35.7142 31.0951 35.8456 29.9226 35.8764 28.7232C35.8968 27.9298 35.8539 27.1249 36.007 26.3436C36.1786 25.4684 36.1938 24.5729 36.3736 23.6913C36.5704 22.7265 36.7581 21.7546 36.974 20.7947C37.2389 19.6169 37.7043 18.5138 38.145 17.3234Z" fill="#C9A24D"/>
<path d="M5.13734 25.9024C6.20596 26.448 6.90375 27.4175 7.60665 28.3155C7.80642 28.3016 7.86348 28.1607 7.95055 28.0627C8.81303 27.0919 10.6238 27.0912 11.3898 28.3265C12.0663 29.4173 11.6786 31.138 10.5763 31.6353C10.1494 31.8279 9.61707 31.5987 9.2544 31.0729C8.95354 30.6367 9.10133 30.2485 9.35541 29.8676C9.56747 29.5497 9.79945 29.435 10.1165 29.7062C10.2351 29.8077 10.3934 29.9368 10.5349 29.7464C10.6507 29.5907 10.5971 29.4089 10.5266 29.2454C10.2374 28.5759 9.29126 28.5253 8.89414 29.1425C8.4997 29.7555 8.46637 30.449 8.61782 31.1227C8.81593 32.0039 9.08794 32.8683 9.37693 33.7191C9.9594 35.434 10.6902 37.0704 11.592 38.604C11.8077 38.9709 12.099 39.281 12.3406 39.6302C12.4302 39.7598 12.5744 39.9262 12.4131 40.0964C12.2509 40.2675 12.1274 40.0992 12.0097 39.9842C10.2512 38.2669 8.99296 36.1621 8.11723 33.7482C7.48407 32.0029 6.95461 30.199 5.95471 28.6477C5.40323 27.792 4.66153 27.302 3.73401 27.1027C3.22996 26.9943 2.75358 26.9295 2.26088 27.1411C1.59799 27.4258 1.19936 27.9786 1.04624 28.7189C0.923004 29.3148 0.960225 29.9034 1.44104 30.3622C1.69451 30.604 1.98574 30.6236 2.27431 30.6795C2.46051 30.7156 2.48487 30.559 2.4991 30.3721C2.56319 29.5304 2.85092 29.1916 3.44117 29.2247C4.20652 29.2676 4.62465 29.7419 4.68429 30.5177C4.74925 31.3628 4.27463 31.8878 3.60491 32.1022C2.60045 32.4237 1.375 32.3293 0.632103 31.2472C0.203096 30.6224 0.0049003 29.8938 0.000154288 29.123C-0.00546013 28.2111 0.140268 27.3246 0.747043 26.6374C1.39872 25.8993 2.20199 25.608 3.12486 25.5585C3.81642 25.5214 4.46782 25.5954 5.13734 25.9024Z" fill="#C9A24D"/>
<path d="M44.6585 26.1035C46.0717 25.3999 47.4597 25.2455 48.7895 26.1873C49.5099 26.6975 49.9608 27.4801 49.9927 28.4652C50.0206 29.3246 49.9876 30.1645 49.5437 30.9538C49.0042 31.913 47.937 32.4894 46.9197 32.2624C46.5913 32.1891 46.2736 32.1334 45.9973 31.8982C45.319 31.3206 45.181 30.2593 45.7063 29.6267C46.0642 29.1957 46.5339 29.1657 46.9769 29.2882C47.3794 29.3995 47.5322 29.8073 47.5546 30.276C47.5746 30.6933 48.0315 30.788 48.4202 30.4673C48.9992 29.9897 49.115 29.1275 48.7827 28.231C48.4639 27.3708 47.3448 26.7898 46.5432 27.0283C45.6546 27.2928 44.7975 27.6156 44.2286 28.4404C43.7019 29.204 43.3088 30.0788 42.9184 30.9461C42.3663 32.1727 41.9957 33.4837 41.4794 34.7274C40.7115 36.577 39.6686 38.195 38.3459 39.5922C38.101 39.8508 37.8169 40.0132 37.4994 40.1174C37.3446 39.8624 37.5132 39.7265 37.6223 39.5971C38.8353 38.1579 39.5372 36.3872 40.2413 34.6107C40.5912 33.7278 40.9095 32.831 41.1688 31.9155C41.4006 31.0972 41.7459 30.2501 41.2313 29.3827C41.0203 29.0271 40.8023 28.7452 40.3874 28.7095C39.973 28.6738 39.6394 28.7834 39.4159 29.1985C39.3328 29.3529 39.2392 29.5125 39.3551 29.6872C39.4804 29.876 39.6634 29.8817 39.8218 29.7681C40.1493 29.5332 40.4056 29.5784 40.6321 29.9377C40.9048 30.3703 40.9086 30.8068 40.6238 31.1969C40.2275 31.74 39.5616 31.8346 39.0517 31.4203C38.3644 30.862 38.0545 29.8163 38.3461 28.8465C38.5295 28.2367 39.3456 27.3412 40.1747 27.4026C41.1205 27.4727 41.0494 27.0803 42.4494 28.6854C43.0417 27.6792 43.6525 26.6952 44.6585 26.1035Z" fill="#C9A24D"/>
<path d="M37.098 9.69248C37.3152 8.36061 38.4849 7.99036 39.4039 8.6903C40.9485 9.8666 40.8147 12.1899 39.1621 13.1448C39.026 13.2235 38.8628 13.259 38.7084 13.2803C36.8559 13.5364 35.2055 12.9985 33.767 11.6676C32.8517 10.8209 32.0359 9.85719 31.2099 8.90504C30.5469 8.14073 29.8353 7.48678 28.8613 7.21564C27.6711 6.88434 26.3269 8.24642 26.5986 9.58927C26.7591 10.3826 27.8298 11.0316 28.4731 10.7255C28.8595 10.5417 28.8633 10.5325 28.7716 9.97881C28.4931 9.87763 28.1783 10.2323 27.8956 9.89293C27.6008 9.539 27.4956 9.02373 27.6994 8.63133C27.9211 8.2045 28.5385 7.92804 28.9298 8.08561C29.6206 8.36375 30.0234 8.88596 30.067 9.73394C30.1086 10.5441 29.7244 11.2359 29.0388 11.6597C28.1479 12.2104 27.3397 11.9118 26.6001 11.344C25.8902 10.799 25.5632 9.96511 25.6342 9.00132C25.7438 7.51387 26.4002 6.74513 27.6674 6.33985C29.4198 5.77938 30.7597 6.61604 31.9759 7.8579C33.1068 9.01264 33.9542 10.496 35.2122 11.5001C36.1113 12.2176 37.1213 12.6644 38.2667 12.5099C39.2636 12.3754 40.1141 11.0999 39.5234 10.13C39.2893 9.74567 39.1495 9.73651 38.9103 10.1129C38.7128 10.4237 38.5584 10.7984 38.1587 10.8613C37.5993 10.9493 37.2028 10.5308 37.098 9.69248Z" fill="#C9A24D"/>
<path d="M23.173 7.96797C22.5538 7.3261 21.934 7.04097 21.0602 7.27799C19.9692 7.57397 19.3345 8.45186 18.6045 9.23818C17.6845 10.2292 16.851 11.3283 15.7534 12.0959C14.4036 13.0399 12.9603 13.5558 11.3494 13.2746C10.56 13.1368 9.63542 12.0458 9.56924 11.2276C9.45119 9.76811 9.94984 8.97424 10.9963 8.51276C11.695 8.20458 12.2892 8.39752 12.7048 8.94525C13.0095 9.34695 12.9977 9.80102 12.8267 10.2388C12.6655 10.6515 12.3818 10.9101 11.9323 10.8737C11.608 10.8474 11.416 10.6709 11.2775 10.3565C11.1762 10.1263 11.1452 9.70625 10.7914 9.87197C10.4892 10.0136 10.1923 10.2915 10.2763 10.7286C10.4445 11.6037 10.9418 12.4338 11.8971 12.5218C13.4479 12.6645 14.6305 11.8265 15.6735 10.6907C16.701 9.57192 17.5577 8.2589 18.7016 7.27167C19.6151 6.4833 20.6653 6.02939 21.8184 6.16872C22.9991 6.31139 23.9232 6.99563 24.3637 8.28826C24.8267 9.64686 24.1993 11.1028 22.9533 11.6764C21.8307 12.1933 20.6656 11.831 20.2254 10.674C19.7422 9.40428 20.0328 8.41766 21.3429 8.04655C21.741 7.93379 22.0957 8.19326 22.3376 8.52599C22.5728 8.84947 22.5588 9.2822 22.3987 9.6372C22.2622 9.93957 22.013 10.1666 21.656 9.98385C21.4588 9.88292 21.3111 9.94792 21.2338 10.1653C21.1605 10.3714 21.2203 10.5264 21.3943 10.6588C21.8571 11.011 22.7914 10.7701 23.16 10.2107C23.6445 9.47563 23.5855 8.74441 23.173 7.96797Z" fill="#C9A24D"/>
<path d="M11.9479 42.3346C12.7572 42.5827 13.5572 42.6832 14.3397 42.8264C15.0998 42.9656 15.8394 43.1716 16.5833 43.368C16.8686 43.4433 17.1364 43.6078 17.4071 43.7443C17.4963 43.7893 17.5442 43.8922 17.533 44.0087C17.5184 44.1619 17.4183 44.2099 17.2993 44.219C17.205 44.2263 17.0905 44.262 17.0185 44.2173C16.4892 43.8881 15.8869 43.9201 15.3212 43.8064C14.431 43.6273 13.5249 43.5426 12.6249 43.8455C12.2639 43.967 11.8804 44.0292 11.5597 44.2532C11.0844 44.5851 10.7109 45.0276 10.4931 45.6288C10.2371 46.3354 10.4016 47.2834 10.9007 47.7961C11.3702 48.2783 12.4822 48.471 12.9975 48.133C13.2268 47.9826 13.4554 47.7884 13.4581 47.4419C13.4609 47.0804 13.3378 46.7983 12.9677 46.8226C12.4642 46.8558 12.1846 46.519 12.0637 46.0662C11.9375 45.5935 12.2388 45.2669 12.5721 45.0317C13.2967 44.5205 13.7551 44.6617 14.4242 45.2555C15.1483 45.8981 15.2806 46.6986 14.9655 47.5103C14.5119 48.6792 13.6612 49.2063 12.6005 49.3245C11.3265 49.4664 10.2281 49.0139 9.4288 47.8484C8.47245 46.454 8.79954 45.2769 9.69352 44.0301C9.8191 43.8549 10.0004 43.7298 10.1108 43.4613C9.53818 42.9442 8.95906 42.4393 8.52341 41.7561C8.17069 41.2029 7.97929 40.567 7.68063 39.9894C7.62965 39.8908 7.63643 39.7724 7.72442 39.7027C7.83941 39.6116 7.93461 39.6997 8.0168 39.7852C8.34905 40.1308 8.65141 40.4991 9.02245 40.8134C9.8984 41.5552 10.882 41.9783 11.9479 42.3346Z" fill="#C9A24D"/>
<path d="M36.9226 49.2496C35.6255 48.955 34.8364 47.7027 34.8959 46.5457C34.9481 45.5324 36.3189 44.1544 37.3847 45.0421C37.703 45.3072 37.9541 45.6222 37.822 46.116C37.6953 46.5892 37.4492 46.8902 36.9592 46.8094C36.7626 46.777 36.5952 46.8505 36.5785 47.0931C36.5563 47.4148 36.4483 47.7606 36.7544 48.0202C37.1304 48.3391 38.1108 48.4551 38.5205 48.146C39.1755 47.6518 39.6309 47.0312 39.5591 46.044C39.495 45.1627 39.0466 44.5825 38.4306 44.2094C37.1623 43.4411 35.7967 43.5192 34.4328 43.8495C33.9304 43.9712 33.3948 43.8894 32.9185 44.196C32.7886 44.2796 32.5898 44.1794 32.5371 43.9833C32.4806 43.7732 32.6418 43.7397 32.7801 43.6764C33.6048 43.2991 34.4538 43.0662 35.3333 42.8723C36.8277 42.5428 38.3847 42.4258 39.7674 41.5995C40.5192 41.1502 41.2521 40.6678 41.8294 39.94C41.9366 39.8049 42.0346 39.6163 42.281 39.6333C42.3597 40.2261 42.0422 40.6683 41.8112 41.1193C41.3839 41.9537 40.8574 42.7021 40.0846 43.1817C39.7848 43.3678 39.879 43.5627 40.0736 43.7589C40.4816 44.17 40.7714 44.67 40.9417 45.2516C41.4709 47.0591 40.1354 49.1621 38.4254 49.2602C37.9354 49.2883 37.4505 49.3397 36.9226 49.2496Z" fill="#C9A24D"/>
<path d="M22.0936 3.70436C22.7742 3.66988 23.2371 4.07232 23.6894 4.48816C24.2421 4.99621 24.6082 5.68177 25.0255 6.35938C25.3223 6.12589 25.4837 5.80194 25.6294 5.51603C26.4806 3.84555 27.8053 3.50396 29.3669 3.74686C29.8681 3.82483 30.3702 3.82714 30.8771 3.76194C31.7284 3.65245 32.3394 3.08129 32.934 2.47512C33.0546 2.35219 33.1483 2.17533 33.323 2.29908C33.4687 2.40231 33.4073 2.5852 33.3665 2.73736C33.0893 3.77206 31.7466 5.43995 30.4541 5.25821C29.9563 5.18821 29.4407 5.28867 28.9391 5.23808C27.2877 5.07152 26.2578 6.10675 25.4049 7.48764C25.1266 7.93817 24.9693 7.9844 24.7082 7.50535C24.3215 6.79612 23.855 6.19861 23.2078 5.78367C22.7431 5.48575 22.2785 5.21438 21.7153 5.23515C21.0997 5.25786 20.4819 5.21884 19.8669 5.25132C18.3447 5.33169 17.4012 4.41289 16.7205 3.01823C16.698 2.97218 16.6737 2.92056 16.6711 2.87017C16.658 2.62201 16.2505 2.40104 16.5232 2.18392C16.7779 1.98114 16.949 2.36515 17.1131 2.54753C17.8919 3.41339 18.8017 3.86128 19.9173 3.77494C20.6258 3.72011 21.3381 3.72668 22.0936 3.70436Z" fill="#C9A24D"/>
<path d="M7.69027 35.5091C8.30895 36.2014 8.77916 36.9765 9.24802 37.7499C9.83529 38.7187 10.522 39.589 11.2589 40.4144C11.3933 40.565 11.6138 40.694 11.4271 41.0417C11.0443 40.8581 10.722 40.5656 10.3683 40.3253C9.27854 39.585 8.52287 38.4648 7.67684 37.4467C6.66727 36.2318 5.42015 35.7463 3.96794 35.967C3.43596 36.0478 2.95539 36.3366 2.55149 36.7522C2.42384 36.8836 2.29839 37.0719 2.11044 36.9086C1.91147 36.7356 2.03925 36.555 2.12071 36.3504C2.40052 35.6472 2.72654 34.9982 3.34864 34.5984C4.41957 33.9102 5.49143 33.8691 6.56793 34.5774C6.96168 34.8365 7.37272 35.0699 7.69027 35.5091Z" fill="#C9A24D"/>
<path d="M43.7087 34.3922C44.5637 33.983 45.3826 33.9375 46.2024 34.3813C47.0761 34.8542 47.5638 35.7036 47.9595 36.6419C48.005 36.7498 47.9762 36.8543 47.891 36.9241C47.7815 37.0138 47.6877 36.9424 47.5877 36.8799C47.1785 36.6239 46.826 36.277 46.36 36.1055C45.6407 35.8406 44.9416 35.9015 44.2302 36.0723C42.8725 36.3983 42.1298 37.6208 41.283 38.6659C40.587 39.5249 39.7353 40.1611 38.9567 40.9012C38.8497 41.0029 38.7095 40.998 38.6069 40.896C38.4795 40.7693 38.5605 40.6363 38.6458 40.5263C39.0487 40.0059 39.4289 39.4592 39.8659 38.9773C40.4339 38.3507 40.786 37.5577 41.2579 36.8584C41.9274 35.8664 42.6219 34.9179 43.7087 34.3922Z" fill="#C9A24D"/>
<path d="M26.4155 1.88145C26.6539 2.11561 26.8765 2.3086 27.111 2.49046C27.411 2.72311 27.3684 2.96836 27.0426 3.13144C26.3254 3.49041 25.8272 4.1229 25.3814 4.81832C25.0966 5.26271 24.9577 5.26776 24.6696 4.80207C24.3062 4.21465 23.8926 3.68863 23.3413 3.31419C23.3144 3.29592 23.291 3.27106 23.2642 3.25256C22.6593 2.83507 22.6715 2.85119 23.2483 2.29904C23.8227 1.74928 24.3963 1.19058 24.7093 0.383616C24.7865 0.184707 24.9159 0.0135243 25.128 0.000574564C25.3606 -0.0136162 25.368 0.238348 25.4582 0.392157C25.7525 0.893404 26.0122 1.42248 26.4155 1.88145Z" fill="#C9A24D"/>
<path d="M27.8194 46.5626C28.3716 46.1997 28.9591 46.0595 29.5379 45.9488C30.6275 45.7403 32.0326 46.4356 31.9866 47.9842C31.9808 48.1788 32.0106 48.3994 31.8321 48.509C31.6592 48.6153 31.529 48.444 31.4172 48.336C30.4478 47.399 29.2664 47.4911 28.1721 47.7119C27.3134 47.8851 26.4958 48.4282 25.9034 49.2455C25.7292 49.4858 25.5529 49.7265 25.1721 49.7782C25.3109 49.1533 25.5751 48.6768 25.8874 48.2218C26.2719 47.6618 26.7853 47.2879 27.3159 46.9337C27.4782 46.8253 27.6309 46.6987 27.8194 46.5626Z" fill="#C9A24D"/>
<path d="M21.918 46.3471C22.3416 46.8267 22.9175 47.0657 23.3741 47.5096C23.9424 48.0621 24.4064 48.6851 24.7705 49.4172C24.8884 49.6543 24.8998 49.8322 24.7319 50C24.4561 49.9904 24.4753 49.7276 24.3734 49.588C23.8536 48.8758 23.1917 48.3929 22.4616 47.9864C21.5784 47.4947 20.6511 47.6056 19.7337 47.6731C19.2968 47.7053 18.9301 48.0573 18.5524 48.3086C18.4255 48.393 18.3154 48.4939 18.1651 48.3963C18.0175 48.3005 18.0173 48.1415 18.0305 47.9767C18.1534 46.437 19.2676 45.6316 20.6182 46.0298C21.0195 46.1481 21.4287 46.2783 21.8841 46.3489C21.923 46.3516 21.9198 46.3484 21.918 46.3471Z" fill="#C9A24D"/>
<path d="M11.9899 33.649C12.266 35.252 12.5327 36.8114 13.2691 38.2008C13.9374 39.4617 14.645 40.6913 15.5903 41.7248C15.7067 41.852 15.8847 41.9576 15.8259 42.2001C15.1495 42.3409 12.9549 39.8842 11.9199 37.833C11.1337 36.2746 11.0432 33.1701 11.8 32.2408C12.1022 32.6696 11.9352 33.1597 11.9899 33.649Z" fill="#C9A24D"/>
<path d="M19.9969 11.3139C20.1472 11.4767 20.4482 11.4467 20.3917 11.7436C20.3456 11.9859 20.1168 12.0191 19.9327 12.0512C19.0957 12.1967 18.2591 12.3514 17.4179 12.458C17.0807 12.5008 16.7953 12.7045 16.4622 12.7425C16.2915 12.7619 16.1251 12.7715 16.0516 12.5829C15.9593 12.3463 16.1609 12.2993 16.2914 12.2096C17.2981 11.5177 18.1765 10.6693 18.8446 9.56636C18.8712 9.52247 18.8941 9.4727 18.9289 9.43866C19.0623 9.30797 19.1095 9.00036 19.3494 9.08815C19.612 9.18428 19.5303 9.45982 19.5093 9.68213C19.4516 10.295 19.5757 10.8402 19.9969 11.3139Z" fill="#C9A24D"/>
<path d="M33.5846 12.1227C33.7294 12.2529 33.9196 12.2492 33.9938 12.4802C33.8295 12.8137 33.5793 12.7133 33.3212 12.6334C32.6277 12.4189 31.9266 12.2232 31.2087 12.1704C30.8262 12.1423 30.4631 12.0558 30.0967 11.9559C29.9679 11.9208 29.8501 11.8736 29.8209 11.7101C29.7935 11.5569 29.9042 11.5021 29.993 11.4282C30.5357 10.9765 30.6345 10.3358 30.5786 9.64024C30.5602 9.41143 30.5002 9.18662 30.7681 8.96091C31.6025 10.1157 32.3713 11.3509 33.5846 12.1227Z" fill="#C9A24D"/>
<path d="M41.1783 12.8526C40.9272 13.5612 40.679 14.2196 40.6921 14.9705C40.6989 15.3609 40.448 15.491 40.141 15.3017C39.6559 15.0026 39.1493 14.7639 38.6181 14.5956C38.3661 14.5157 38.2261 14.311 38.2258 14.064C38.2254 13.7522 38.4896 13.8463 38.6645 13.8182C39.6627 13.6583 40.2605 12.9058 40.7534 12.0159C40.8579 11.8272 40.9735 11.63 40.9926 11.3876C41.0039 11.2445 41.0658 11.0919 41.2237 11.1085C41.3767 11.1247 41.3996 11.291 41.4282 11.4285C41.5322 11.9297 41.2777 12.3526 41.1783 12.8526Z" fill="#C9A24D"/>
<path d="M8.97701 11.2535C9.38941 12.6177 10.0142 13.6771 11.3955 13.848C11.4887 13.8595 11.5798 13.8971 11.6705 13.9279C11.8176 13.9777 11.9292 14.0669 11.9221 14.2615C11.9153 14.4497 11.8136 14.5555 11.6577 14.5821C11.057 14.6847 10.5379 15.0218 10.0004 15.303C9.53085 15.5487 9.34087 15.4362 9.36769 14.8699C9.41064 13.9631 8.98903 13.212 8.73 12.4086C8.62329 12.0776 8.58892 11.754 8.63791 11.4214C8.66303 11.2507 8.70394 10.9835 8.97701 11.2535Z" fill="#C9A24D"/>
<path d="M31.4991 45.0445C32.0368 44.8088 32.5191 44.7214 33.0867 44.8616C34.1241 45.1179 34.4769 46.2209 33.8962 47.3425C33.8318 47.4669 33.7946 47.6283 33.6401 47.5981C33.455 47.562 33.4002 47.3911 33.4031 47.1978C33.4113 46.6524 33.233 46.2103 32.8544 45.8575C32.4957 45.5234 32.0773 45.5212 31.6491 45.5224C31.4938 45.5228 31.3137 45.5101 31.2649 45.2975C31.2292 45.1417 31.3611 45.0993 31.4991 45.0445Z" fill="#C9A24D"/>
<path d="M18.5468 45.1106C18.7556 45.3455 18.631 45.454 18.4548 45.4986C18.3037 45.5368 18.142 45.5259 17.9849 45.5295C17.1956 45.5476 16.6667 46.1275 16.624 47.0201C16.6173 47.16 16.6195 47.3086 16.5771 47.4363C16.5155 47.6213 16.3837 47.6634 16.2395 47.5327C15.9018 47.2266 15.7855 45.7096 16.067 45.3309C16.4214 44.8543 17.5191 44.5975 18.0411 44.8658C18.1971 44.946 18.3577 45.0152 18.5468 45.1106Z" fill="#C9A24D"/>
<path d="M25.0632 9.77982C25.3353 10.2634 25.7109 10.6518 25.7905 11.1986C25.5736 11.3742 25.4455 11.2177 25.3061 11.1617C25.0534 11.0603 24.8129 11.0652 24.5856 11.2407C24.5024 11.3049 24.4084 11.3362 24.3223 11.2671C24.2368 11.1985 24.2127 11.0825 24.2644 10.9832C24.4675 10.5936 24.7277 10.2404 24.823 9.78403C24.8405 9.69986 24.958 9.72475 25.0632 9.77982Z" fill="#C9A24D"/>
<path d="M24.6253 19.3041C24.9869 19.4088 25.3171 19.4173 25.6476 19.4487C26.2461 19.5056 26.7842 19.8172 27.3376 20.0531C27.775 20.2396 28.201 20.4914 28.4755 19.7907C28.5287 19.6549 28.6764 19.6076 28.8069 19.6543C29.0152 19.7288 29.0195 19.9434 29.0206 20.1366C29.0266 21.1259 29.0256 22.1153 29.0273 23.1047C29.0278 23.388 29.0355 23.6714 29.029 23.9545C29.0228 24.227 29.0076 24.5242 28.6831 24.5399C28.3838 24.5545 28.1452 24.3851 28.0975 24.0413C27.9725 23.14 27.58 22.3831 27.1088 21.6717C26.4378 20.6588 24.9055 20.1188 24.0301 20.5462C23.0594 21.0202 22.6314 22.3365 23.3852 23.4566C23.7065 23.934 24.1233 24.2783 24.5752 24.5735C25.6895 25.3011 26.8213 25.9961 27.9209 26.7503C28.5532 27.1839 28.9722 27.8428 29.2514 28.624C29.8445 30.2839 29.387 31.7167 28.4556 32.9938C27.8398 33.838 26.991 34.3079 25.9894 34.3485C25.7841 34.3568 25.5777 34.3447 25.3734 34.3634C24.2156 34.4693 23.1245 34.1882 22.0769 33.6569C21.7386 33.4854 21.443 33.4499 21.2205 33.869C21.1235 34.0519 20.9664 34.1348 20.7731 34.0718C20.5544 34.0004 20.5602 33.7922 20.5584 33.5962C20.5465 32.3057 20.5397 31.0151 20.5229 29.7246C20.5194 29.4561 20.5964 29.2545 20.8423 29.2312C21.097 29.2072 21.3737 29.2327 21.449 29.5908C21.6907 30.7398 22.1766 31.7197 22.9909 32.485C23.7548 33.2028 24.8858 33.525 25.806 33.0643C26.9202 32.5065 27.2176 30.6949 26.2107 29.7062C25.3897 28.9002 24.4547 28.2722 23.5062 27.6711C22.9995 27.35 22.4834 27.0404 22.0053 26.6708C20.5719 25.5628 20.2705 24.2545 20.5493 22.6283C20.8171 21.0671 21.7335 19.9868 23.0951 19.4889C23.5612 19.3185 24.0874 19.3542 24.6253 19.3041Z" fill="#C9A24D"/>
<path d="M31.7547 39.0852C32.0358 38.8494 32.1973 38.4788 32.5725 38.4444C32.6858 38.7001 32.5122 38.8342 32.4132 38.9641C30.5593 41.3954 28.4023 43.3692 25.7922 44.7377C24.8141 45.2506 24.1061 44.758 23.3582 44.3286C21.1656 43.0695 19.3 41.3514 17.8048 39.145C17.7217 39.0225 17.6053 38.9059 17.73 38.6637C18.1137 38.8353 18.3909 39.1651 18.6662 39.4855C19.8656 40.8816 21.1694 42.1281 22.7151 43.0228C23.2587 43.3375 23.8149 43.6291 24.3803 43.8908C24.7047 44.041 25.0674 44.0529 25.4023 43.9102C27.4761 43.0263 29.3213 41.7378 30.901 39.9825C31.1699 39.6837 31.4535 39.4012 31.7547 39.0852Z" fill="#C9A24D"/>
<path d="M36.8084 20.1569C36.5456 20.9045 36.4435 21.6455 36.3404 22.3929C36.2638 22.9488 36.086 23.4872 35.9392 24.0916C35.6605 23.8317 35.6789 23.5854 35.7101 23.3128C35.8582 22.0202 35.9756 20.723 36.1416 19.4335C36.2059 18.9337 36.348 18.4415 36.4977 17.9627C36.5646 17.7485 36.539 17.6459 36.3875 17.5222C35.4009 16.7162 34.3075 16.1435 33.1755 15.6517C32.7099 15.4494 32.2511 15.2292 31.8238 14.9412C31.8618 14.6362 32.0457 14.6133 32.2131 14.678C33.8154 15.297 35.4321 15.8789 36.9093 16.8398C37.0176 16.9102 37.1325 16.97 37.2488 17.0225C37.5902 17.1767 37.6661 17.4867 37.5082 17.7981C37.2045 18.3971 37.0867 19.0679 36.8562 19.6934C36.8101 19.8184 36.8274 19.9728 36.8084 20.1569Z" fill="#C9A24D"/>
<path d="M13.6877 17.4397C13.546 17.5321 13.426 17.6231 13.4943 17.7891C13.881 18.7291 13.7705 19.795 14.0982 20.7509C14.1581 20.9256 14.1489 21.1335 14.1557 21.3269C14.1754 21.8895 14.1441 22.4503 14.3234 23.0025C14.4151 23.2849 14.413 23.6249 14.2178 23.9169C14.1559 23.8775 14.091 23.8608 14.0837 23.8281C13.8735 22.8824 13.6688 21.9352 13.4638 20.988C13.2363 19.9375 12.9796 18.8964 12.6014 17.8998C12.4488 17.4975 12.4798 17.2373 12.8515 16.9813C14.1599 16.0805 15.5901 15.4945 17.0312 14.9578C17.3825 14.8269 17.7861 14.5027 18.2717 14.7481C18.0964 15.1976 17.7141 15.2761 17.4346 15.3922C16.1328 15.9328 14.8619 16.5297 13.6877 17.4397Z" fill="#C9A24D"/>
</svg>
